# xmcd
#
# Track frame offsets:
#	150
#	19285
#	35250
#	51575
#	68950
#	84165
#	97785
#	113000
#	127482
#	142632
#	157150
#	172497
#
# Disc length: 2482 seconds
#
# Revision: 0
# Processed by: cddbd v1.5.1PL0 Copyright (c) Steve Scherf et al.
# Submitted via: dBpowerAMP V4.0
#
DISCID=a609b00c
DTITLE=Garotos do Fandango - Apanhando dela
DYEAR=2002
DGENRE=Regional
TTITLE0=Apanhando dela
TTITLE1=Encosta
TTITLE2=Ritual Campeiro
TTITLE3=Gairteiro Bugre
TTITLE4=A Revolta do Gaiteiro
TTITLE5=Pega Fogo o Bailão
TTITLE6=Só Cria Boa
TTITLE7=Com Toda Corda
TTITLE8=Alô Guria
TTITLE9=Chiquita Linda
TTITLE10=De a Cavalo na Vaneira
TTITLE11=Funga-Funga
EXTD=
EXTT0=
EXTT1=
EXTT2=
EXTT3=
EXTT4=
EXTT5=
EXTT6=
EXTT7=
EXTT8=
EXTT9=
EXTT10=
EXTT11=
PLAYORDER=
